# xmcd
#
# Track frame offsets: 
#        150
#        2697
#        25118
#        44599
#        66247
#        94847
#        116822
#        142614
#        168107
#        193098
#        220451
#        238901
#        268699
#
# Disc length: 3948 seconds
#
# Revision: 0
# Processed by: cddbd v1.5.2PL0 Copyright (c) Steve Scherf et al.
# Submitted via: ExactAudioCopy v1.3
#
DISCID=b80f6a0d
DTITLE=Jeff Strahan - Double Live At Billy's Ice [ disk 1]
DYEAR=2009
DGENRE=Texas Blues, Americana
TTITLE0=Intro
TTITLE1=Everyday's A Holiday
TTITLE2=Amen To The Blues
TTITLE3=Confused
TTITLE4=Del Rio
TTITLE5=Cooler Than Cool
TTITLE6=Viva Mexico
TTITLE7=Smoke Filled Room
TTITLE8=Superman
TTITLE9=New Girlfriend
TTITLE10=Looking For My Rhythm
TTITLE11=Montana
TTITLE12=Just A Douche (With Texas Renegade)
EXTD=
EXTT0=
EXTT1=
EXTT2=
EXTT3=
EXTT4=
EXTT5=
EXTT6=
EXTT7=
EXTT8=
EXTT9=
EXTT10=
EXTT11=
EXTT12=
PLAYORDER=
